
<svg width="19px" height="17px" viewBox="0 0 19 17" version="1.1" xmlns="http://www.w3.org/2000/svg" xmlns:xlink="http://www.w3.org/1999/xlink">
    <g id="Page-1" stroke="none" stroke-width="1" fill="none" fill-rule="evenodd">
        <g id="Login" transform="translate(-1237.000000, -588.000000)" fill="#FA5375" fill-rule="nonzero">
            <path d="M1255.96859,593.069232 C1255.69125,590.131637 1253.53059,588.000352 1250.82658,588.000352 C1249.02512,588.000352 1247.37567,588.933251 1246.44753,590.428421 C1245.5278,588.91391 1243.94595,588 1242.17336,588 C1239.4697,588 1237.30868,590.131286 1237.0317,593.06888 C1237.00978,593.198635 1236.91989,593.881518 1237.19321,594.99516 C1237.58712,596.601448 1238.49699,598.062509 1239.82378,599.219402 L1246.44315,605 L1253.17615,599.219754 C1254.50294,598.062509 1255.41281,596.6018 1255.80672,594.99516 C1256.08004,593.88187 1255.99015,593.198986 1255.96859,593.069232 Z M1255.09527,594.834109 C1254.73571,596.301148 1253.90221,597.637729 1252.68723,598.696866 L1246.44753,604.05409 L1240.31489,598.698273 C1239.09772,597.637026 1238.26459,596.300796 1237.90466,594.833757 C1237.64595,593.779895 1237.75229,593.184569 1237.75265,593.180701 L1237.75813,593.145186 C1237.99565,590.571538 1239.85229,588.703279 1242.17336,588.703279 C1243.88602,588.703279 1245.39369,589.716 1246.10916,591.345848 L1246.4457,592.113476 L1246.78224,591.345848 C1247.48638,589.740966 1249.07372,588.70363 1250.82694,588.70363 C1253.14765,588.70363 1255.00465,590.57189 1255.24691,593.178943 C1255.24765,593.184569 1255.35398,593.780246 1255.09527,594.834109 Z" id="Shape"></path>
        </g>
    </g>
</svg>