<svg id="Layer_3" enable-background="new 0 0 64 64" height="512" viewBox="0 0 64 64" width="512" xmlns="http://www.w3.org/2000/svg"><path d="m35.929 14.071 1.142-1.142c1.875-1.875 4.419-2.929 7.071-2.929h.928c4.168 0 7.9-2.586 9.363-6.489l.567-1.511v4.716c0 5.304-2.107 10.391-5.858 14.142l-.284.284c-3.751 3.751-8.838 5.858-14.142 5.858h-1.716v-5.858c0-2.652 1.054-5.196 2.929-7.071z" fill="#f4b2b0"/><path d="m20 63h16c6.617 0 12-5.383 12-12 0-5.213-3.347-9.647-8-11.3v-2.7h1c.552 0 1-.447 1-1v-4c0-.552-.448-1-1-1h-10.586l3-3h1.302c5.609 0 10.883-2.185 14.849-6.151l.284-.284c3.966-3.966 6.151-9.24 6.151-14.849v-4.716c0-.483-.346-.897-.821-.984-.476-.087-.945.18-1.115.633l-.567 1.511c-1.31 3.493-4.697 5.84-8.427 5.84h-.928c-2.938 0-5.7 1.144-7.778 3.222l-1.143 1.143c-2.077 2.077-3.221 4.839-3.221 7.777v5.444l-4.414 4.414h-12.586c-.552 0-1 .448-1 1v4c0 .553.448 1 1 1h1v2.7c-4.653 1.653-8 6.087-8 11.3 0 6.617 5.383 12 12 12zm14-41.858c0-2.404.936-4.664 2.636-6.364l1.143-1.143c1.7-1.7 3.96-2.636 6.364-2.636h.928c3.576 0 6.893-1.764 8.93-4.584v.3c0 5.075-1.977 9.846-5.565 13.435l-.284.284c-3.414 3.414-7.903 5.347-12.701 5.529l8.963-8.963h4.586v-2h-5c-.265 0-.52.105-.707.293l-2.293 2.293v-2.586h-2v4.586l-5 5zm-5 19.909c5.046.504 9 4.773 9 9.949s-3.954 9.446-9 9.949zm-2 19.898c-5.046-.504-9-4.773-9-9.949s3.954-9.446 9-9.949zm19-9.949c0 5.514-4.486 10-10 10h-1.381c3.239-2.151 5.381-5.828 5.381-10s-2.142-7.849-5.381-10h1.381c5.514 0 10 4.486 10 10zm-30-18h24v2h-24zm2 4h20v2.181c-.652-.11-1.317-.181-2-.181h-16c-.683 0-1.348.071-2 .181zm2 4h1.381c-3.239 2.151-5.381 5.828-5.381 10s2.142 7.849 5.381 10h-1.381c-5.514 0-10-4.486-10-10s4.486-10 10-10z" fill="#b3404a"/></svg>