<?xml version="1.0"?>
<svg xmlns="http://www.w3.org/2000/svg" id="Layer_3" enable-background="new 0 0 64 64" height="512px" viewBox="0 0 64 64" width="512px" class=""><g><path d="m55.01 59.597c-3.608-3.61-8.406-5.597-13.51-5.597-1.586 0-3.148.207-4.664.588l-.459-.367c-1.934-1.547-3.116-3.782-3.332-6.221h8.955c4.962 0 9-4.037 9-9v-2c0-.553-.448-1-1-1h-10c-2.826 0-5.349 1.312-7 3.356v-5.356h7c3.86 0 7-3.141 7-7v-2c0-.553-.448-1-1-1h-8c-1.958 0-3.728.81-5 2.111v-4.111h4c3.309 0 6-2.691 6-6v-1c0-.553-.448-1-1-1h-5c-2.086 0-3.924 1.071-5 2.69-1.076-1.62-2.914-2.69-5-2.69h-5c-.552 0-1 .447-1 1v1c0 3.309 2.691 6 6 6h4v4.111c-1.272-1.301-3.042-2.111-5-2.111h-8c-.552 0-1 .447-1 1v2c0 3.859 3.14 7 7 7h7v5.356c-1.651-2.044-4.174-3.356-7-3.356h-10c-.552 0-1 .447-1 1v2c0 4.963 4.038 9 9 9h8.955c-.216 2.438-1.398 4.674-3.333 6.222l-.701.561c-1.738-.512-3.558-.783-5.421-.783-5.104 0-9.902 1.987-13.51 5.597l-1.404 1.403h-5.586v2h62v-2h-6.586zm-1.426 1.403h-17.17l-1.404-1.403c-.541-.541-1.116-1.033-1.707-1.499 2.51-1.373 5.315-2.098 8.197-2.098 4.564 0 8.855 1.776 12.084 5zm-13.584-23h9v1c0 3.859-3.14 7-7 7h-9v-1c0-3.859 3.14-7 7-7zm-2-12h7v1c0 2.757-2.243 5-5 5h-7v-1c0-2.757 2.243-5 5-5zm-1-10h4c0 2.206-1.794 4-4 4h-4c0-2.206 1.794-4 4-4zm-14 0h4c2.206 0 4 1.794 4 4h-4c-2.206 0-4-1.794-4-4zm-4 11v-1h7c2.757 0 5 2.243 5 5v1h-7c-2.757 0-5-2.243-5-5zm-4 12v-1h9c3.86 0 7 3.141 7 7v1h-9c-3.86 0-7-3.141-7-7zm17 12.767c.607 1.327 1.483 2.523 2.586 3.53-1.069.416-2.099.937-3.087 1.545-.772-.477-1.571-.903-2.399-1.263 1.254-1.061 2.236-2.36 2.9-3.812zm-10.5 4.233c4.564 0 8.855 1.776 12.084 5h-24.168c3.229-3.224 7.52-5 12.084-5z" data-original="#000000" class="active-path" data-old_color="#000000" fill="#FFFFFF"/><path d="m5 15h13c2.757 0 5-2.243 5-5s-2.243-5-5-5c-.438 0-.877.061-1.303.18-.767-2.455-3.024-4.18-5.697-4.18-3.309 0-6 2.691-6 6-2.206 0-4 1.794-4 4s1.794 4 4 4zm0-6c.27 0 .533.054.782.159.351.15.755.087 1.043-.161.289-.248.411-.639.317-1.007-.097-.379-.142-.693-.142-.991 0-2.206 1.794-4 4-4 2.081 0 3.784 1.574 3.961 3.663.029.344.234.648.541.806.308.157.674.145.97-.033.482-.29.996-.436 1.528-.436 1.654 0 3 1.346 3 3s-1.346 3-3 3h-13c-1.103 0-2-.897-2-2s.897-2 2-2z" data-original="#000000" class="active-path" data-old_color="#000000" fill="#FFFFFF"/><path d="m46 15h13c2.206 0 4-1.794 4-4s-1.794-4-4-4c0-3.309-2.691-6-6-6-2.673 0-4.93 1.725-5.697 4.18-.426-.119-.865-.18-1.303-.18-2.757 0-5 2.243-5 5s2.243 5 5 5zm0-8c.532 0 1.046.146 1.528.436.295.178.662.19.97.033.307-.157.512-.462.541-.806.177-2.089 1.88-3.663 3.961-3.663 2.206 0 4 1.794 4 4 0 .298-.045.612-.142.991-.095.369.029.76.318 1.008.29.248.696.311 1.044.159.246-.104.509-.158.78-.158 1.103 0 2 .897 2 2s-.897 2-2 2h-13c-1.654 0-3-1.346-3-3s1.346-3 3-3z" data-original="#000000" class="active-path" data-old_color="#000000" fill="#FFFFFF"/></g> </svg>
